# xmcd
#
# Track frame offsets:
#	150
#	6382
#	24295
#	43205
#	57777
#	71402
#	83100
#	96315
#	109045
#	113270
#	124722
#	142665
#	159120
#	172612
#	192435
#	203610
#	221827
#	236477
#	250305
#	263572
#	267995
#	284887
#	296942
#	308532
#	322650
#	337912
#
# Disc length: 4582 seconds
#
# Revision: 2
# Processed by: cddbd v1.5.1PL2 Copyright (c) Steve Scherf et al.
# Submitted via: dBpowerAMP V4.0
#
DISCID=6311e41a
DTITLE=Baby Drew - Street Music vol.1 disc 2
DYEAR=2005
DGENRE=Gangsta
TTITLE0=Intro feat:The Mayor of The Ghetto
TTITLE1=Hit Em Wit The Meen Mug
TTITLE2=Like Me feat:Ges
TTITLE3=Dis Fa Life feat:Money I'z and Mista Lee
TTITLE4=Drop and Pop feat:Play Boy "D"
TTITLE5=Can I Live feat: C.Smith
TTITLE6=Listen feat:Smokey Mb
TTITLE7=Get it Gyrl feat:Shagg
TTITLE8=It burns(skit)
TTITLE9=Vd In Ur D feat: Godzilla
TTITLE10=12 Lil Freaks feat:Dime Bag Records
TTITLE11=Ooh baby feat:Ges,Bigg Hank and Anatomi
TTITLE12=MAC feat: Q-Chee and Anatomi
TTITLE13=Ordinary Crazy feat:D-Note
TTITLE14=I Got Action feat:Papper Chaser
TTITLE15=Aint No Tellin feat:Dotty AtK and Devin the Dude
TTITLE16=wood Grain feat:Kyoz,baby Drew and Mista Lee
TTITLE17=Stealin hoes feat:OzNola and Ges
TTITLE18=Party Life feat: D-Note
TTITLE19=SKit
TTITLE20=Yall Scared feat:Pimpin Ken,Chick Boss, John Doe and Too Short
TTITLE21=I got Dat Bag feat:Young Twan
TTITLE22=Hard Livin feat: Da Hav Knotz
TTITLE23=A Good Look On Me feat:Guines
TTITLE24=It's Hard to be Mather feat: Rolla Boy and Cash Ball,rodney Poe
TTITLE25=Outro feat:the Mayor of The Ghetto
EXTD=
EXTT0=
EXTT1=
EXTT2=
EXTT3=
EXTT4=
EXTT5=
EXTT6=
EXTT7=
EXTT8=
EXTT9=
EXTT10=
EXTT11=
EXTT12=
EXTT13=
EXTT14=
EXTT15=
EXTT16=
EXTT17=
EXTT18=
EXTT19=
EXTT20=
EXTT21=
EXTT22=
EXTT23=
EXTT24=
EXTT25=
PLAYORDER=
